<svg width="62" height="62" viewBox="0 0 62 62" fill="none" xmlns="http://www.w3.org/2000/svg">
<g id="Document Align Left 9">
<g id="Vector" filter="url(#filter0_b_20_2193)">
<path fill-rule="evenodd" clip-rule="evenodd" d="M1 31C1 18.5009 1 12.2513 4.18305 7.87025C5.21104 6.45533 6.45533 5.21104 7.87025 4.18305C12.2513 1 18.5009 1 31 1C43.4991 1 49.7487 1 54.1298 4.18305C55.5447 5.21104 56.789 6.45533 57.817 7.87025C61 12.2513 61 18.5009 61 31C61 33.7965 61 36.2801 60.9644 38.5L60.7306 38.5C57.8905 38.4998 56.1606 38.4996 54.6683 38.736C46.4671 40.0349 40.0349 46.4671 38.736 54.6683C38.4996 56.1606 38.4998 57.8905 38.5 60.7306L38.5 60.9644C36.2801 61 33.7965 61 31 61C18.5009 61 12.2513 61 7.87025 57.817C6.45533 56.789 5.21104 55.5447 4.18305 54.1298C1 49.7487 1 43.4991 1 31Z" fill="#F27123" fill-opacity="0.35"/>
<path d="M55.4505 43.6744C56.4785 43.5116 57.7477 43.5004 60.7822 43.5C60.4675 48.2988 59.6981 51.5406 57.817 54.1298C56.789 55.5447 55.5447 56.789 54.1298 57.817C51.5406 59.6981 48.2988 60.4675 43.5 60.7822C43.5004 57.7477 43.5116 56.4785 43.6744 55.4505C44.6345 49.3887 49.3887 44.6345 55.4505 43.6744Z" fill="#F27123" fill-opacity="0.35"/>
<path d="M60.9643 39L61.4564 39L61.4643 38.508C61.5 36.284 61.5 33.797 61.5 31.0027V31V30.9681C61.5 24.7455 61.5 20.0363 61.0992 16.337C60.6967 12.6221 59.8852 9.86634 58.2215 7.57635C57.1626 6.11899 55.881 4.83737 54.4236 3.77854C52.1337 2.11477 49.3779 1.30328 45.663 0.90079C41.9637 0.499998 37.2545 0.499999 31.0319 0.5H31H30.9681C24.7455 0.499999 20.0363 0.499998 16.337 0.90079C12.6221 1.30328 9.86634 2.11477 7.57635 3.77854C6.11899 4.83737 4.83737 6.11899 3.77854 7.57635C2.11477 9.86634 1.30328 12.6221 0.90079 16.337C0.499998 20.0363 0.499999 24.7455 0.5 30.9681V31V31.0319C0.499999 37.2545 0.499998 41.9637 0.90079 45.663C1.30328 49.3779 2.11477 52.1337 3.77854 54.4236C4.83737 55.881 6.11899 57.1626 7.57635 58.2215C9.86634 59.8852 12.6221 60.6967 16.337 61.0992C20.0363 61.5 24.7455 61.5 30.9681 61.5H31H31.0027C33.797 61.5 36.284 61.5 38.508 61.4643L39 61.4564L39 60.9643L39 60.7306C38.9998 57.8746 39.0011 56.1908 39.2298 54.7466C40.4949 46.7592 46.7592 40.4949 54.7466 39.2298C56.1908 39.0011 57.8746 38.9998 60.7306 39L60.9643 39ZM61.2811 43.5327L61.3161 42.9999L60.7821 43C57.7661 43.0004 56.4487 43.0101 55.3723 43.1806C49.0965 44.1746 44.1746 49.0965 43.1806 55.3723C43.0101 56.4487 43.0004 57.7661 43 60.7821L42.9999 61.3161L43.5327 61.2811C48.3592 60.9646 51.7178 60.1873 54.4236 58.2215C55.881 57.1626 57.1626 55.881 58.2215 54.4236C60.1873 51.7178 60.9646 48.3592 61.2811 43.5327Z" stroke="url(#paint0_linear_20_2193)" stroke-linecap="round"/>
</g>
<g id="Vector_2" filter="url(#filter1_d_20_2193)">
<path fill-rule="evenodd" clip-rule="evenodd" d="M17.6667 15.1667C16.286 15.1667 15.1667 16.286 15.1667 17.6667C15.1667 19.0474 16.286 20.1667 17.6667 20.1667H27.6667C29.0474 20.1667 30.1667 19.0474 30.1667 17.6667C30.1667 16.286 29.0474 15.1667 27.6667 15.1667H17.6667ZM17.6667 28.5C16.286 28.5 15.1667 29.6193 15.1667 31C15.1667 32.3807 16.286 33.5 17.6667 33.5H44.3334C45.7141 33.5 46.8334 32.3807 46.8334 31C46.8334 29.6193 45.7141 28.5 44.3334 28.5H17.6667ZM17.6667 41.8333C16.286 41.8333 15.1667 42.9526 15.1667 44.3333C15.1667 45.714 16.286 46.8333 17.6667 46.8333H27.6667C29.0474 46.8333 30.1667 45.714 30.1667 44.3333C30.1667 42.9526 29.0474 41.8333 27.6667 41.8333H17.6667Z" fill="url(#paint1_linear_20_2193)"/>
</g>
</g>
<defs>
<filter id="filter0_b_20_2193" x="-24" y="-24" width="110" height="110" filterUnits="userSpaceOnUse" color-interpolation-filters="sRGB">
<feFlood flood-opacity="0" result="BackgroundImageFix"/>
<feGaussianBlur in="BackgroundImageFix" stdDeviation="12"/>
<feComposite in2="SourceAlpha" operator="in" result="effect1_backgroundBlur_20_2193"/>
<feBlend mode="normal" in="SourceGraphic" in2="effect1_backgroundBlur_20_2193" result="shape"/>
</filter>
<filter id="filter1_d_20_2193" x="12.1667" y="12.1667" width="47.6667" height="47.6667" filterUnits="userSpaceOnUse" color-interpolation-filters="sRGB">
<feFlood flood-opacity="0" result="BackgroundImageFix"/>
<feColorMatrix in="SourceAlpha" type="matrix" values="0 0 0 0 0 0 0 0 0 0 0 0 0 0 0 0 0 0 127 0" result="hardAlpha"/>
<feOffset dx="5" dy="5"/>
<feGaussianBlur stdDeviation="4"/>
<feColorMatrix type="matrix" values="0 0 0 0 0.94902 0 0 0 0 0.443137 0 0 0 0 0.137255 0 0 0 0.5 0"/>
<feBlend mode="normal" in2="BackgroundImageFix" result="effect1_dropShadow_20_2193"/>
<feBlend mode="normal" in="SourceGraphic" in2="effect1_dropShadow_20_2193" result="shape"/>
</filter>
<linearGradient id="paint0_linear_20_2193" x1="1" y1="1" x2="61.0304" y2="60.9696" gradientUnits="userSpaceOnUse">
<stop stop-color="white" stop-opacity="0.25"/>
<stop offset="1" stop-color="white" stop-opacity="0"/>
</linearGradient>
<linearGradient id="paint1_linear_20_2193" x1="31.2667" y1="53.5797" x2="74.9717" y2="10.738" gradientUnits="userSpaceOnUse">
<stop stop-color="white"/>
<stop offset="1" stop-color="white" stop-opacity="0.2"/>
</linearGradient>
</defs>
</svg>
