<svg width="17" height="16" viewBox="0 0 17 16" fill="none" xmlns="http://www.w3.org/2000/svg">
<g id="Frame" clip-path="url(#clip0_270_197)">
<path id="Vector" d="M11.5 0C11.0969 0 10.7312 0.24375 10.575 0.61875C10.4187 0.99375 10.5062 1.42188 10.7906 1.70938L12.0844 3L6.79375 8.29375C6.40312 8.68437 6.40312 9.31875 6.79375 9.70938C7.18437 10.1 7.81875 10.1 8.20937 9.70938L13.5 4.41563L14.7937 5.70937C15.0813 5.99687 15.5094 6.08125 15.8844 5.925C16.2594 5.76875 16.5031 5.40625 16.5031 5V1C16.5031 0.446875 16.0563 0 15.5031 0H11.5ZM3 1C1.61875 1 0.5 2.11875 0.5 3.5V13.5C0.5 14.8813 1.61875 16 3 16H13C14.3813 16 15.5 14.8813 15.5 13.5V10C15.5 9.44687 15.0531 9 14.5 9C13.9469 9 13.5 9.44687 13.5 10V13.5C13.5 13.775 13.275 14 13 14H3C2.725 14 2.5 13.775 2.5 13.5V3.5C2.5 3.225 2.725 3 3 3H6.5C7.05312 3 7.5 2.55312 7.5 2C7.5 1.44687 7.05312 1 6.5 1H3Z" fill="white"/>
</g>
<defs>
<clipPath id="clip0_270_197">
<rect width="16" height="16" fill="white" transform="translate(0.5)"/>
</clipPath>
</defs>
</svg>
