<svg width="74" height="74" viewBox="0 0 74 74" fill="none" xmlns="http://www.w3.org/2000/svg">
<g id="Image 3">
<g id="Vector" filter="url(#filter0_b_50_1723)">
<path fill-rule="evenodd" clip-rule="evenodd" d="M18.6216 1.91243C22.4287 1.49995 27.2274 1.49997 33.3492 1.5H33.6508C39.7726 1.49997 44.5713 1.49995 48.3784 1.91243C52.2635 2.33335 55.4115 3.20775 58.0992 5.16051C59.7264 6.3427 61.1573 7.77363 62.3395 9.40078C64.2923 12.0885 65.1666 15.2365 65.5876 19.1216C66 22.9286 66 27.7275 66 33.8491V34.0199C66 37.1343 66 39.8941 65.9495 42.3351C65.8008 49.5154 65.2391 54.6082 62.3395 58.5992C61.1573 60.2264 59.7264 61.6573 58.0992 62.8395C55.4115 64.7923 52.2635 65.6666 48.3784 66.0876C44.5714 66.5 39.7728 66.5 33.6512 66.5H33.3491C27.2275 66.5 22.4286 66.5 18.6216 66.0876C14.7365 65.6666 11.5885 64.7923 8.90078 62.8395C7.33268 61.7002 5.94682 60.3299 4.7902 58.7756C4.74663 58.717 4.7034 58.6583 4.66051 58.5992C2.70775 55.9115 1.83335 52.7635 1.41243 48.8784C0.999952 45.0713 0.999973 40.2726 1 34.1508V33.8492C0.999974 27.7274 0.999954 22.9287 1.41243 19.1216C1.83336 15.2365 2.70775 12.0885 4.66051 9.40078C5.8427 7.77364 7.27364 6.3427 8.90079 5.16051C11.5885 3.20775 14.7365 2.33335 18.6216 1.91243Z" fill="#D5D5D5"/>
<path d="M4.256 58.8931L4.64657 58.6093L4.256 58.8931C4.30002 58.9537 4.34438 59.014 4.38906 59.0741L4.7902 58.7756L4.38907 59.0741C5.57586 60.6689 6.99788 62.075 8.60689 63.244C11.3941 65.269 14.6401 66.1591 18.5677 66.5847C22.4017 67 27.2226 67 33.3197 67H33.3491H33.6512H33.6805C39.7777 67 44.5983 67 48.4323 66.5847C52.3599 66.1591 55.6059 65.269 58.3931 63.244C60.0627 62.031 61.531 60.5627 62.744 58.8931C65.7462 54.761 66.3009 49.5168 66.4494 42.3454C66.5 39.8993 66.5 37.1353 66.5 34.0241V34.0199V33.8491V33.8197C66.5 27.7226 66.5 22.9017 66.0847 19.0677C65.6591 15.1401 64.769 11.8941 62.744 9.10689C61.531 7.43729 60.0627 5.96903 58.3931 4.756C55.6059 2.73099 52.3599 1.84087 48.4323 1.41534C44.5983 0.99995 39.7776 0.999972 33.6804 1L33.6508 1H33.3492L33.3196 1C27.2224 0.999972 22.4017 0.99995 18.5677 1.41534C14.6401 1.84087 11.3941 2.73099 8.60689 4.756C6.9373 5.96903 5.46903 7.4373 4.256 9.10689C2.23099 11.8941 1.34087 15.1401 0.915337 19.0677C0.499951 22.9017 0.499973 27.7224 0.5 33.8196L0.5 33.8492V34.1508L0.5 34.1804C0.499972 40.2776 0.49995 45.0983 0.915336 48.9323C1.34087 52.8599 2.23099 56.1059 4.256 58.8931Z" stroke="url(#paint0_linear_50_1723)" stroke-linecap="round"/>
</g>
<g id="Image 2" filter="url(#filter1_d_50_1723)">
<g id="Vector_2" filter="url(#filter2_b_50_1723)">
<path fill-rule="evenodd" clip-rule="evenodd" d="M60.9846 39.8389L60.7744 39.636C59.8546 38.7523 59.1749 38.1544 58.5355 37.7005C51.373 32.6149 41.4928 33.9617 35.9527 40.7787C35.2836 41.602 34.6138 42.6991 33.5608 44.5406L31.8335 44C27.8484 43.203 25.8559 42.8045 24.0271 42.8433C19.133 42.9472 14.532 45.1975 11.4453 48.9969C10.4163 50.2634 9.58202 51.8466 8.12354 54.7543C8.30342 55.0726 8.49721 55.3732 8.70575 55.6603L8.8016 55.7906C9.6565 56.9395 10.6808 57.9523 11.8399 58.7944C13.5332 60.0247 15.7006 60.7418 19.1603 61.1166C22.6668 61.4966 27.1949 61.5 33.5002 61.5C39.8054 61.5 44.3335 61.4966 47.84 61.1166C51.2997 60.7418 53.4671 60.0247 55.1604 58.7944C56.3631 57.9206 57.4208 56.8629 58.2946 55.6603C60.1668 53.0834 60.8001 49.5087 60.9507 42.2316C60.9665 41.4685 60.9772 40.6721 60.9846 39.8389ZM30.1668 30.6666C26.4849 30.6666 23.5002 27.6819 23.5002 24C23.5002 20.3181 26.4849 17.3333 30.1668 17.3333C33.8487 17.3333 36.8335 20.3181 36.8335 24C36.8335 27.6819 33.8487 30.6666 30.1668 30.6666Z" fill="url(#paint1_linear_50_1723)"/>
</g>
</g>
</g>
<defs>
<filter id="filter0_b_50_1723" x="-24" y="-23.5" width="115" height="115" filterUnits="userSpaceOnUse" color-interpolation-filters="sRGB">
<feFlood flood-opacity="0" result="BackgroundImageFix"/>
<feGaussianBlur in="BackgroundImageFix" stdDeviation="12"/>
<feComposite in2="SourceAlpha" operator="in" result="effect1_backgroundBlur_50_1723"/>
<feBlend mode="normal" in="SourceGraphic" in2="effect1_backgroundBlur_50_1723" result="shape"/>
</filter>
<filter id="filter1_d_50_1723" x="5.12354" y="14.3333" width="68.8608" height="60.1667" filterUnits="userSpaceOnUse" color-interpolation-filters="sRGB">
<feFlood flood-opacity="0" result="BackgroundImageFix"/>
<feColorMatrix in="SourceAlpha" type="matrix" values="0 0 0 0 0 0 0 0 0 0 0 0 0 0 0 0 0 0 127 0" result="hardAlpha"/>
<feOffset dx="5" dy="5"/>
<feGaussianBlur stdDeviation="4"/>
<feColorMatrix type="matrix" values="0 0 0 0 0.661667 0 0 0 0 0.661667 0 0 0 0 0.661667 0 0 0 0.5 0"/>
<feBlend mode="normal" in2="BackgroundImageFix" result="effect1_dropShadow_50_1723"/>
<feBlend mode="normal" in="SourceGraphic" in2="effect1_dropShadow_50_1723" result="shape"/>
</filter>
<filter id="filter2_b_50_1723" x="-15.8765" y="-6.66669" width="100.861" height="92.1667" filterUnits="userSpaceOnUse" color-interpolation-filters="sRGB">
<feFlood flood-opacity="0" result="BackgroundImageFix"/>
<feGaussianBlur in="BackgroundImageFix" stdDeviation="12"/>
<feComposite in2="SourceAlpha" operator="in" result="effect1_backgroundBlur_50_1723"/>
<feBlend mode="normal" in="SourceGraphic" in2="effect1_backgroundBlur_50_1723" result="shape"/>
</filter>
<linearGradient id="paint0_linear_50_1723" x1="1" y1="1.5" x2="66.0329" y2="66.467" gradientUnits="userSpaceOnUse">
<stop stop-color="white" stop-opacity="0.25"/>
<stop offset="1" stop-color="white" stop-opacity="0"/>
</linearGradient>
<linearGradient id="paint1_linear_50_1723" x1="34.9992" y1="70.9094" x2="95.1986" y2="0.282707" gradientUnits="userSpaceOnUse">
<stop stop-color="white"/>
<stop offset="1" stop-color="white" stop-opacity="0.2"/>
</linearGradient>
</defs>
</svg>
