<svg width="23" height="23" viewBox="0 0 23 23" fill="none" xmlns="http://www.w3.org/2000/svg">
<g filter="url(#filter0_b_37_72)">
<path fill-rule="evenodd" clip-rule="evenodd" d="M20.455 4.13007C21 5.19963 21 6.59976 21 9.40003V10.5842C21 12.2734 21 13.118 20.798 13.8069C20.3189 15.441 19.041 16.7189 17.4069 17.198C16.7179 17.4 15.8734 17.4 14.1842 17.4H13.6354L13.5703 17.4001C12.5501 17.4067 11.5562 17.7251 10.7222 18.3128L10.6692 18.3506L8.05848 20.2154C7.1635 20.8547 5.98743 19.9315 6.3959 18.9103C6.68525 18.1869 6.15251 17.4 5.37341 17.4H4.77166C2.68863 17.4 1 15.7114 1 13.6284V9.40003C1 6.59976 1 5.19963 1.54497 4.13007C2.02433 3.18926 2.78924 2.42436 3.73005 1.94499C4.79961 1.40002 6.19974 1.40002 9 1.40002H13C15.8003 1.40002 17.2004 1.40002 18.27 1.94499C19.2108 2.42436 19.9757 3.18926 20.455 4.13007Z" fill="#3E3E3E"/>
<path d="M21.5 9.40003V9.37713C21.5 7.99636 21.5 6.92945 21.4302 6.07532C21.3596 5.21064 21.2149 4.52009 20.9005 3.90308C20.3732 2.86819 19.5318 2.02679 18.497 1.49949C17.8799 1.1851 17.1894 1.04045 16.3247 0.969806C15.4706 0.900021 14.4037 0.900022 13.0229 0.900024H13H9H8.97711C7.59634 0.900022 6.52943 0.900021 5.67529 0.969806C4.81061 1.04045 4.12007 1.1851 3.50305 1.49949C2.46816 2.02679 1.62677 2.86819 1.09946 3.90308C0.78508 4.52009 0.640429 5.21064 0.569781 6.07532C0.499996 6.92945 0.499998 7.99636 0.5 9.37714V9.40003V13.6284C0.5 15.9875 2.41249 17.9 4.77166 17.9H5.37341C5.79878 17.9 6.08964 18.3296 5.93166 18.7246C5.33773 20.2094 7.04777 21.5518 8.3491 20.6223L10.9592 18.7579L10.9598 18.7575L11.0103 18.7216C11.0106 18.7213 11.0109 18.7211 11.0112 18.7209C11.7613 18.1926 12.6549 17.9062 13.5724 17.9001C13.5727 17.9001 13.5731 17.9001 13.5735 17.9001L13.6354 17.9H13.6362H14.1842L14.2906 17.9C15.8785 17.9001 16.7891 17.9002 17.5475 17.6778C19.3451 17.1508 20.7507 15.7451 21.2778 13.9476C21.5002 13.1892 21.5001 12.2786 21.5 10.6906L21.5 10.5842V9.40003Z" stroke="url(#paint0_linear_37_72)" stroke-linecap="round"/>
</g>
<g filter="url(#filter1_d_37_72)">
<path d="M11 6.65002C10.5858 6.65002 10.25 6.98581 10.25 7.40002C10.25 7.81424 10.5858 8.15003 11 8.15003H15C15.4142 8.15003 15.75 7.81424 15.75 7.40002C15.75 6.98581 15.4142 6.65002 15 6.65002H11Z" fill="url(#paint1_linear_37_72)"/>
<path d="M7 10.65C6.58579 10.65 6.25 10.9858 6.25 11.4C6.25 11.8142 6.58579 12.15 7 12.15H15C15.4142 12.15 15.75 11.8142 15.75 11.4C15.75 10.9858 15.4142 10.65 15 10.65H7Z" fill="url(#paint2_linear_37_72)"/>
</g>
<defs>
<filter id="filter0_b_37_72" x="-24" y="-23.6" width="70" height="69.0316" filterUnits="userSpaceOnUse" color-interpolation-filters="sRGB">
<feFlood flood-opacity="0" result="BackgroundImageFix"/>
<feGaussianBlur in="BackgroundImageFix" stdDeviation="12"/>
<feComposite in2="SourceAlpha" operator="in" result="effect1_backgroundBlur_37_72"/>
<feBlend mode="normal" in="SourceGraphic" in2="effect1_backgroundBlur_37_72" result="shape"/>
</filter>
<filter id="filter1_d_37_72" x="3.25" y="3.65002" width="25.5" height="21.5" filterUnits="userSpaceOnUse" color-interpolation-filters="sRGB">
<feFlood flood-opacity="0" result="BackgroundImageFix"/>
<feColorMatrix in="SourceAlpha" type="matrix" values="0 0 0 0 0 0 0 0 0 0 0 0 0 0 0 0 0 0 127 0" result="hardAlpha"/>
<feOffset dx="5" dy="5"/>
<feGaussianBlur stdDeviation="4"/>
<feColorMatrix type="matrix" values="0 0 0 0 0.311667 0 0 0 0 0.311667 0 0 0 0 0.311667 0 0 0 0.5 0"/>
<feBlend mode="normal" in2="BackgroundImageFix" result="effect1_dropShadow_37_72"/>
<feBlend mode="normal" in="SourceGraphic" in2="effect1_dropShadow_37_72" result="shape"/>
</filter>
<linearGradient id="paint0_linear_37_72" x1="1" y1="1.40002" x2="20.0132" y2="21.366" gradientUnits="userSpaceOnUse">
<stop stop-color="white" stop-opacity="0.25"/>
<stop offset="1" stop-color="white" stop-opacity="0"/>
</linearGradient>
<linearGradient id="paint1_linear_37_72" x1="11.08" y1="13.3218" x2="17.729" y2="2.06398" gradientUnits="userSpaceOnUse">
<stop stop-color="white"/>
<stop offset="1" stop-color="white" stop-opacity="0.2"/>
</linearGradient>
<linearGradient id="paint2_linear_37_72" x1="11.08" y1="13.3218" x2="17.729" y2="2.06398" gradientUnits="userSpaceOnUse">
<stop stop-color="white"/>
<stop offset="1" stop-color="white" stop-opacity="0.2"/>
</linearGradient>
</defs>
</svg>
