<svg width="63" height="72" viewBox="0 0 63 72" fill="none" xmlns="http://www.w3.org/2000/svg">
<g filter="url(#filter0_b_50_211)">
<path fill-rule="evenodd" clip-rule="evenodd" d="M4.68305 17.8702C1.5 22.2513 1.5 28.5009 1.5 41C1.5 53.4991 1.5 59.7487 4.68305 64.1298C5.71104 65.5447 6.95533 66.789 8.37025 67.8169C12.7513 71 19.0009 71 31.5 71C43.9991 71 50.2487 71 54.6298 67.8169C56.0447 66.789 57.289 65.5447 58.317 64.1298C61.5 59.7487 61.5 53.4991 61.5 41C61.5 28.5009 61.5 22.2513 58.317 17.8702C57.289 16.4553 56.0447 15.211 54.6298 14.183C54.5531 14.1274 54.4759 14.0727 54.3982 14.019C50.0282 11 43.7805 11 31.5 11C19.2199 11 12.9722 11 8.60226 14.0187C8.52433 14.0725 8.447 14.1273 8.37025 14.183C6.95533 15.211 5.71104 16.4553 4.68305 17.8702Z" fill="#ECECEC"/>
<path d="M31.4999 1C37.7041 1 40.8063 1 43.3168 1.81572C47.7103 3.24326 51.2821 6.41734 53.2315 10.5371C51.1641 9.64919 48.8399 9.16692 46.173 8.89067C42.4009 8.49996 37.6622 8.49998 31.6426 8.5H31.3571C25.3377 8.49998 20.5992 8.49996 16.8272 8.89064C14.16 9.16688 11.8357 9.64914 9.76823 10.5371C11.7176 6.41735 15.2894 3.24326 19.6829 1.81572C22.1934 1 25.2956 1 31.4999 1Z" fill="#ECECEC"/>
<path d="M53.0342 10.9965L54.2489 11.5182L53.6834 10.3233C51.6756 6.07987 47.9967 2.81057 43.4713 1.3402C40.8853 0.499932 37.7113 0.499955 31.6327 0.499999L31.4999 0.5L31.367 0.499999C25.2884 0.499955 22.1145 0.499932 19.5284 1.3402C15.003 2.81057 11.3241 6.07988 9.31627 10.3233L8.75085 11.5183L9.96555 10.9966C11.9692 10.136 14.2386 9.66141 16.8787 9.38797C20.6191 9.00057 25.3277 8.99998 31.3571 9H31.6426C37.6723 8.99998 42.381 9.00057 46.1215 9.38801C48.7614 9.66146 51.0306 10.136 53.0342 10.9965ZM4.27854 17.5764C2.61477 19.8663 1.80328 22.6221 1.40079 26.337C0.999998 30.0363 0.999999 34.7455 1 40.9681V41V41.0319C0.999999 47.2545 0.999998 51.9637 1.40079 55.663C1.80328 59.3779 2.61477 62.1337 4.27854 64.4236C5.33737 65.881 6.61899 67.1626 8.07635 68.2215C10.3663 69.8852 13.1221 70.6967 16.837 71.0992C20.5363 71.5 25.2455 71.5 31.4681 71.5H31.5H31.5319C37.7545 71.5 42.4637 71.5 46.163 71.0992C49.8779 70.6967 52.6337 69.8852 54.9236 68.2215C56.381 67.1626 57.6626 65.881 58.7215 64.4236C60.3852 62.1337 61.1967 59.3779 61.5992 55.663C62 51.9637 62 47.2545 62 41.0319V41V40.9681C62 34.7455 62 30.0363 61.5992 26.337C61.1967 22.6221 60.3852 19.8663 58.7215 17.5764C57.6626 16.119 56.381 14.8374 54.9236 13.7785C54.8438 13.7205 54.7634 13.6636 54.6824 13.6076C52.3992 12.0303 49.6497 11.2615 45.967 10.88C42.2981 10.5 37.645 10.5 31.5301 10.5H31.5H31.4699C25.3552 10.5 20.7022 10.5 17.0333 10.88C13.3507 11.2614 10.6012 12.0301 8.31808 13.6073C8.23688 13.6634 8.15631 13.7204 8.07635 13.7785C6.61899 14.8374 5.33737 16.119 4.27854 17.5764Z" stroke="url(#paint0_linear_50_211)" stroke-linecap="round"/>
</g>
<g filter="url(#filter1_d_50_211)">
<path d="M26.601 32.5655C25.6247 31.5892 24.0418 31.5892 23.0655 32.5655C22.0892 33.5418 22.0892 35.1247 23.0655 36.101L28.3688 41.4043L23.0655 46.7076C22.0892 47.6839 22.0892 49.2668 23.0655 50.2432C24.0418 51.2195 25.6247 51.2195 26.601 50.2432L31.9043 44.9399L37.2076 50.2432C38.1839 51.2195 39.7668 51.2195 40.7432 50.2432C41.7195 49.2668 41.7195 47.6839 40.7432 46.7076L35.4399 41.4043L40.7432 36.101C41.7195 35.1247 41.7195 33.5418 40.7432 32.5655C39.7668 31.5892 38.1839 31.5892 37.2076 32.5655L31.9043 37.8688L26.601 32.5655Z" fill="url(#paint1_linear_50_211)"/>
</g>
<defs>
<filter id="filter0_b_50_211" x="-23.5" y="-24" width="110" height="120" filterUnits="userSpaceOnUse" color-interpolation-filters="sRGB">
<feFlood flood-opacity="0" result="BackgroundImageFix"/>
<feGaussianBlur in="BackgroundImageFix" stdDeviation="12"/>
<feComposite in2="SourceAlpha" operator="in" result="effect1_backgroundBlur_50_211"/>
<feBlend mode="normal" in="SourceGraphic" in2="effect1_backgroundBlur_50_211" result="shape"/>
</filter>
<filter id="filter1_d_50_211" x="19.3333" y="28.8333" width="35.1421" height="35.1421" filterUnits="userSpaceOnUse" color-interpolation-filters="sRGB">
<feFlood flood-opacity="0" result="BackgroundImageFix"/>
<feColorMatrix in="SourceAlpha" type="matrix" values="0 0 0 0 0 0 0 0 0 0 0 0 0 0 0 0 0 0 127 0" result="hardAlpha"/>
<feOffset dx="5" dy="5"/>
<feGaussianBlur stdDeviation="4"/>
<feColorMatrix type="matrix" values="0 0 0 0 0.638333 0 0 0 0 0.638333 0 0 0 0 0.638333 0 0 0 0.5 0"/>
<feBlend mode="normal" in2="BackgroundImageFix" result="effect1_dropShadow_50_211"/>
<feBlend mode="normal" in="SourceGraphic" in2="effect1_dropShadow_50_211" result="shape"/>
</filter>
<linearGradient id="paint0_linear_50_211" x1="1.5" y1="1" x2="70.7008" y2="60.2549" gradientUnits="userSpaceOnUse">
<stop stop-color="white" stop-opacity="0.25"/>
<stop offset="1" stop-color="white" stop-opacity="0"/>
</linearGradient>
<linearGradient id="paint1_linear_50_211" x1="32.0655" y1="55.0535" x2="58.4847" y2="29.1562" gradientUnits="userSpaceOnUse">
<stop stop-color="white"/>
<stop offset="1" stop-color="white" stop-opacity="0.2"/>
</linearGradient>
</defs>
</svg>
