<svg width="62" height="62" viewBox="0 0 62 62" fill="none" xmlns="http://www.w3.org/2000/svg">
<g filter="url(#filter0_b_85_33)">
<path fill-rule="evenodd" clip-rule="evenodd" d="M4.18305 7.87025C1 12.2513 1 18.5009 1 31C1 43.4991 1 49.7487 4.18305 54.1298C5.21104 55.5447 6.45533 56.789 7.87025 57.817C12.2513 61 18.5009 61 31 61C43.4991 61 49.7487 61 54.1298 57.817C55.5447 56.789 56.789 55.5447 57.817 54.1298C61 49.7487 61 43.4991 61 31C61 18.5009 61 12.2513 57.817 7.87025C56.789 6.45533 55.5447 5.21104 54.1298 4.18305C49.7487 1 43.4991 1 31 1C18.5009 1 12.2513 1 7.87025 4.18305C6.45533 5.21104 5.21104 6.45533 4.18305 7.87025Z" fill="#29ACD6" fill-opacity="0.35"/>
<path fill-rule="evenodd" clip-rule="evenodd" d="M4.18305 7.87025C1 12.2513 1 18.5009 1 31C1 43.4991 1 49.7487 4.18305 54.1298C5.21104 55.5447 6.45533 56.789 7.87025 57.817C12.2513 61 18.5009 61 31 61C43.4991 61 49.7487 61 54.1298 57.817C55.5447 56.789 56.789 55.5447 57.817 54.1298C61 49.7487 61 43.4991 61 31C61 18.5009 61 12.2513 57.817 7.87025C56.789 6.45533 55.5447 5.21104 54.1298 4.18305C49.7487 1 43.4991 1 31 1C18.5009 1 12.2513 1 7.87025 4.18305C6.45533 5.21104 5.21104 6.45533 4.18305 7.87025Z" stroke="url(#paint0_linear_85_33)"/>
</g>
<g filter="url(#filter1_d_85_33)">
<path fill-rule="evenodd" clip-rule="evenodd" d="M33.5 21C33.5 19.6193 32.3807 18.5 31 18.5C29.6193 18.5 28.5 19.6193 28.5 21V28.5H21C19.6193 28.5 18.5 29.6193 18.5 31C18.5 32.3807 19.6193 33.5 21 33.5H28.5V41C28.5 42.3807 29.6193 43.5 31 43.5C32.3807 43.5 33.5 42.3807 33.5 41V33.5H41C42.3807 33.5 43.5 32.3807 43.5 31C43.5 29.6193 42.3807 28.5 41 28.5H33.5V21Z" fill="url(#paint1_linear_85_33)"/>
</g>
<defs>
<filter id="filter0_b_85_33" x="-23.5" y="-23.5" width="109" height="109" filterUnits="userSpaceOnUse" color-interpolation-filters="sRGB">
<feFlood flood-opacity="0" result="BackgroundImageFix"/>
<feGaussianBlur in="BackgroundImageFix" stdDeviation="12"/>
<feComposite in2="SourceAlpha" operator="in" result="effect1_backgroundBlur_85_33"/>
<feBlend mode="normal" in="SourceGraphic" in2="effect1_backgroundBlur_85_33" result="shape"/>
</filter>
<filter id="filter1_d_85_33" x="15.5" y="15.5" width="41" height="41" filterUnits="userSpaceOnUse" color-interpolation-filters="sRGB">
<feFlood flood-opacity="0" result="BackgroundImageFix"/>
<feColorMatrix in="SourceAlpha" type="matrix" values="0 0 0 0 0 0 0 0 0 0 0 0 0 0 0 0 0 0 127 0" result="hardAlpha"/>
<feOffset dx="5" dy="5"/>
<feGaussianBlur stdDeviation="4"/>
<feColorMatrix type="matrix" values="0 0 0 0 0.176471 0 0 0 0 0.556863 0 0 0 0 0.678431 0 0 0 0.5 0"/>
<feBlend mode="normal" in2="BackgroundImageFix" result="effect1_dropShadow_85_33"/>
<feBlend mode="normal" in="SourceGraphic" in2="effect1_dropShadow_85_33" result="shape"/>
</filter>
<linearGradient id="paint0_linear_85_33" x1="1" y1="1" x2="61.0304" y2="60.9696" gradientUnits="userSpaceOnUse">
<stop stop-color="white" stop-opacity="0.25"/>
<stop offset="1" stop-color="white" stop-opacity="0"/>
</linearGradient>
<linearGradient id="paint1_linear_85_33" x1="31.2105" y1="48.8261" x2="65.7145" y2="15.0037" gradientUnits="userSpaceOnUse">
<stop stop-color="white"/>
<stop offset="1" stop-color="white" stop-opacity="0.2"/>
</linearGradient>
</defs>
</svg>
