<svg width="73" height="69" viewBox="0 0 73 69" fill="none" xmlns="http://www.w3.org/2000/svg">
<g filter="url(#filter0_b_58_2)">
<rect x="1" y="1" width="64" height="64" rx="20" fill="#3E3E3E"/>
<rect x="0.5" y="0.5" width="65" height="65" rx="20.5" stroke="url(#paint0_linear_58_2)" stroke-linecap="round"/>
</g>
<g filter="url(#filter1_d_58_2)">
<path d="M40.1489 10C39.1619 10 38.3617 10.7921 38.3617 11.7692C38.3617 12.7464 39.1619 13.5385 40.1489 13.5385H42.5319C48.1253 13.5385 52.6596 18.0271 52.6596 23.5641V25.9231C52.6596 26.9002 53.4597 27.6923 54.4468 27.6923C55.4339 27.6923 56.234 26.9002 56.234 25.9231V23.5641C56.234 16.0729 50.0994 10 42.5319 10H40.1489Z" fill="url(#paint1_linear_58_2)"/>
<path d="M23.4681 10C15.9006 10 9.76596 16.0729 9.76596 23.5641V25.9231C9.76596 26.9002 10.5661 27.6923 11.5532 27.6923C12.5403 27.6923 13.3404 26.9002 13.3404 25.9231V23.5641C13.3404 18.0271 17.8747 13.5385 23.4681 13.5385H25.8511C26.8381 13.5385 27.6383 12.7464 27.6383 11.7692C27.6383 10.7921 26.8381 10 25.8511 10H23.4681Z" fill="url(#paint2_linear_58_2)"/>
<path d="M6.78723 31.2308C5.80017 31.2308 5 32.0229 5 33C5 33.9771 5.80017 34.7692 6.78723 34.7692H59.2128C60.1998 34.7692 61 33.9771 61 33C61 32.0229 60.1998 31.2308 59.2128 31.2308H6.78723Z" fill="url(#paint3_linear_58_2)"/>
<path d="M13.3404 40.0769C13.3404 39.0998 12.5403 38.3077 11.5532 38.3077C10.5661 38.3077 9.76596 39.0998 9.76596 40.0769V42.4359C9.76596 49.9271 15.9006 56 23.4681 56H25.8511C26.8381 56 27.6383 55.2079 27.6383 54.2308C27.6383 53.2537 26.8381 52.4615 25.8511 52.4615H23.4681C17.8747 52.4615 13.3404 47.9729 13.3404 42.4359V40.0769Z" fill="url(#paint4_linear_58_2)"/>
<path d="M56.234 40.0769C56.234 39.0998 55.4339 38.3077 54.4468 38.3077C53.4597 38.3077 52.6596 39.0998 52.6596 40.0769V42.4359C52.6596 47.9729 48.1253 52.4615 42.5319 52.4615H40.1489C39.1619 52.4615 38.3617 53.2537 38.3617 54.2308C38.3617 55.2079 39.1619 56 40.1489 56H42.5319C50.0994 56 56.234 49.9271 56.234 42.4359V40.0769Z" fill="url(#paint5_linear_58_2)"/>
</g>
<defs>
<filter id="filter0_b_58_2" x="-24" y="-24" width="114" height="114" filterUnits="userSpaceOnUse" color-interpolation-filters="sRGB">
<feFlood flood-opacity="0" result="BackgroundImageFix"/>
<feGaussianBlur in="BackgroundImageFix" stdDeviation="12"/>
<feComposite in2="SourceAlpha" operator="in" result="effect1_backgroundBlur_58_2"/>
<feBlend mode="normal" in="SourceGraphic" in2="effect1_backgroundBlur_58_2" result="shape"/>
</filter>
<filter id="filter1_d_58_2" x="2" y="7" width="72" height="62" filterUnits="userSpaceOnUse" color-interpolation-filters="sRGB">
<feFlood flood-opacity="0" result="BackgroundImageFix"/>
<feColorMatrix in="SourceAlpha" type="matrix" values="0 0 0 0 0 0 0 0 0 0 0 0 0 0 0 0 0 0 127 0" result="hardAlpha"/>
<feOffset dx="5" dy="5"/>
<feGaussianBlur stdDeviation="4"/>
<feColorMatrix type="matrix" values="0 0 0 0 0.565 0 0 0 0 0.565 0 0 0 0 0.565 0 0 0 0.5 0"/>
<feBlend mode="normal" in2="BackgroundImageFix" result="effect1_dropShadow_58_2"/>
<feBlend mode="normal" in="SourceGraphic" in2="effect1_dropShadow_58_2" result="shape"/>
</filter>
<linearGradient id="paint0_linear_58_2" x1="1" y1="1" x2="65.0324" y2="64.9675" gradientUnits="userSpaceOnUse">
<stop stop-color="white" stop-opacity="0.25"/>
<stop offset="1" stop-color="white" stop-opacity="0"/>
</linearGradient>
<linearGradient id="paint1_linear_58_2" x1="33.4716" y1="65.8" x2="95.9923" y2="-8.80875" gradientUnits="userSpaceOnUse">
<stop stop-color="white"/>
<stop offset="1" stop-color="white" stop-opacity="0.2"/>
</linearGradient>
<linearGradient id="paint2_linear_58_2" x1="33.4716" y1="65.8" x2="95.9923" y2="-8.80875" gradientUnits="userSpaceOnUse">
<stop stop-color="white"/>
<stop offset="1" stop-color="white" stop-opacity="0.2"/>
</linearGradient>
<linearGradient id="paint3_linear_58_2" x1="33.4716" y1="65.8" x2="95.9923" y2="-8.80875" gradientUnits="userSpaceOnUse">
<stop stop-color="white"/>
<stop offset="1" stop-color="white" stop-opacity="0.2"/>
</linearGradient>
<linearGradient id="paint4_linear_58_2" x1="33.4716" y1="65.8" x2="95.9923" y2="-8.80875" gradientUnits="userSpaceOnUse">
<stop stop-color="white"/>
<stop offset="1" stop-color="white" stop-opacity="0.2"/>
</linearGradient>
<linearGradient id="paint5_linear_58_2" x1="33.4716" y1="65.8" x2="95.9923" y2="-8.80875" gradientUnits="userSpaceOnUse">
<stop stop-color="white"/>
<stop offset="1" stop-color="white" stop-opacity="0.2"/>
</linearGradient>
</defs>
</svg>
